<svg xmlns="http://www.w3.org/2000/svg" xmlns:xlink="http://www.w3.org/1999/xlink" width="500" zoomAndPan="magnify" viewBox="0 0 375 374.999991" height="500" preserveAspectRatio="xMidYMid meet" version="1.0"><defs><g/><clipPath id="f1ddf3d2ec"><path d="M 118.425781 80.796875 L 256.425781 80.796875 L 256.425781 216.546875 L 118.425781 216.546875 Z M 118.425781 80.796875 " clip-rule="nonzero"/></clipPath><clipPath id="44efecadf6"><path d="M 199.542969 96.390625 C 201.265625 96.390625 202.65625 97.785156 202.65625 99.507812 C 202.65625 101.230469 201.265625 102.625 199.542969 102.625 C 197.820312 102.625 196.429688 101.230469 196.429688 99.507812 C 196.429688 97.785156 197.820312 96.390625 199.542969 96.390625 Z M 250.4375 147.046875 C 250.4375 148.605469 249.292969 149.882812 247.796875 150.117188 C 246.988281 161.644531 243.082031 172.328125 236.886719 181.335938 C 238.066406 182.46875 238.808594 184.054688 238.808594 185.824219 C 238.808594 189.265625 236.019531 192.054688 232.582031 192.054688 C 231.199219 192.054688 229.925781 191.585938 228.894531 190.820312 C 219.832031 199.65625 208.140625 205.796875 195.113281 207.917969 C 195.113281 207.976562 195.132812 208.035156 195.132812 208.097656 C 195.132812 212.753906 191.359375 216.527344 186.707031 216.527344 C 182.15625 216.527344 178.476562 212.910156 178.308594 208.402344 C 159.5 206.417969 143.132812 196.132812 132.945312 181.269531 C 132.324219 181.609375 131.628906 181.8125 130.871094 181.8125 C 128.441406 181.8125 126.46875 179.839844 126.46875 177.40625 C 126.46875 175.847656 127.28125 174.484375 128.5 173.699219 C 124.289062 165.25 121.910156 155.730469 121.910156 145.660156 C 121.910156 142.339844 122.203125 139.058594 122.71875 135.832031 C 120.234375 135.011719 118.425781 132.691406 118.425781 129.933594 C 118.425781 126.492188 121.214844 123.703125 124.652344 123.703125 C 125.0625 123.703125 125.46875 123.75 125.859375 123.820312 C 131.515625 108.609375 142.925781 95.777344 158.023438 88.625 C 158.054688 88.609375 158.089844 88.597656 158.128906 88.578125 C 158 88.085938 157.914062 87.578125 157.914062 87.046875 C 157.914062 83.605469 160.703125 80.816406 164.140625 80.816406 C 166.644531 80.816406 168.796875 82.308594 169.777344 84.441406 C 169.8125 84.433594 169.84375 84.421875 169.871094 84.414062 L 170.097656 85.335938 C 170.253906 85.878906 170.363281 86.441406 170.363281 87.039062 C 170.363281 88.21875 170.015625 89.3125 169.449219 90.246094 L 178.527344 97.140625 C 179.070312 96.671875 179.773438 96.378906 180.546875 96.378906 C 182.269531 96.378906 183.660156 97.769531 183.660156 99.496094 C 183.660156 100.488281 183.191406 101.363281 182.460938 101.933594 L 189.792969 116.941406 C 190.210938 116.808594 190.648438 116.714844 191.113281 116.714844 C 192.429688 116.714844 193.597656 117.304688 194.40625 118.21875 L 205.0625 111.359375 C 204.9375 111.015625 204.855469 110.648438 204.855469 110.265625 C 204.855469 108.542969 206.246094 107.152344 207.96875 107.152344 C 209.691406 107.152344 211.082031 108.542969 211.082031 110.265625 C 211.082031 110.921875 210.878906 111.523438 210.53125 112.027344 L 224.0625 126.328125 C 224.78125 125.828125 225.640625 125.53125 226.582031 125.53125 C 229.011719 125.53125 230.984375 127.507812 230.984375 129.9375 C 230.984375 132.148438 229.355469 133.960938 227.238281 134.28125 L 227.238281 159.832031 C 228.050781 159.953125 228.78125 160.296875 229.382812 160.800781 L 244.265625 147.519531 C 244.246094 147.367188 244.21875 147.214844 244.21875 147.054688 C 244.21875 145.332031 245.609375 143.9375 247.332031 143.9375 C 249.046875 143.933594 250.4375 145.324219 250.4375 147.046875 Z M 223.308594 132.855469 L 207.941406 142.9375 C 207.949219 143.011719 207.960938 143.082031 207.960938 143.164062 C 207.960938 143.375 207.941406 143.582031 207.902344 143.78125 L 224.039062 160.578125 C 224.585938 160.183594 225.230469 159.925781 225.925781 159.828125 L 225.925781 134.269531 C 224.886719 134.113281 223.976562 133.605469 223.308594 132.855469 Z M 222.175781 164.164062 C 222.175781 163.148438 222.527344 162.234375 223.105469 161.484375 L 207.320312 145.046875 C 207.070312 145.371094 206.765625 145.640625 206.40625 145.847656 L 201.253906 166.136719 C 201.894531 166.410156 202.445312 166.832031 202.890625 167.355469 L 222.191406 164.214844 C 222.183594 164.195312 222.175781 164.183594 222.175781 164.164062 Z M 167.507812 124.542969 C 166.394531 126.234375 164.484375 127.347656 162.3125 127.347656 C 160.957031 127.347656 159.71875 126.902344 158.691406 126.167969 L 147.285156 138.988281 C 148.277344 140.082031 148.902344 141.519531 148.914062 143.109375 L 160.261719 144.203125 C 160.949219 140.246094 164.386719 137.222656 168.539062 137.222656 C 170.507812 137.222656 172.289062 137.925781 173.726562 139.054688 L 180.761719 131.402344 Z M 181.675781 130.417969 L 187.695312 123.867188 C 187.21875 123.269531 186.894531 122.5625 186.773438 121.773438 L 168.472656 121.773438 C 168.414062 122.335938 168.300781 122.878906 168.101562 123.382812 Z M 186.714844 154.09375 C 186.714844 153.867188 186.742188 153.644531 186.789062 153.429688 L 176.382812 148.699219 C 175.164062 151.851562 172.125 154.09375 168.539062 154.09375 C 167.621094 154.09375 166.746094 153.90625 165.917969 153.636719 L 160.480469 166.640625 C 161.109375 167.09375 161.613281 167.703125 161.929688 168.417969 L 186.726562 154.234375 C 186.722656 154.179688 186.714844 154.140625 186.714844 154.09375 Z M 146.230469 148.285156 L 156.023438 166.242188 C 156.597656 165.964844 157.234375 165.800781 157.914062 165.800781 C 158.40625 165.800781 158.871094 165.898438 159.3125 166.042969 L 164.710938 153.132812 C 161.996094 151.734375 160.113281 148.929688 160.113281 145.660156 C 160.113281 145.609375 160.128906 145.554688 160.128906 145.503906 L 148.796875 144.410156 C 148.472656 146.011719 147.53125 147.386719 146.230469 148.285156 Z M 153.875 171.949219 L 135.230469 176.914062 C 135.25 177.074219 135.277344 177.226562 135.277344 177.394531 L 164.394531 182.753906 C 164.988281 181.023438 166.613281 179.777344 168.539062 179.777344 C 169.253906 179.777344 169.917969 179.964844 170.515625 180.261719 L 187.542969 156.195312 C 187.355469 155.996094 187.203125 155.769531 187.078125 155.523438 L 162.265625 169.722656 C 162.289062 169.882812 162.3125 170.042969 162.3125 170.199219 C 162.3125 172.632812 160.339844 174.609375 157.910156 174.609375 C 156.109375 174.609375 154.550781 173.515625 153.875 171.949219 Z M 189.828125 150.976562 C 190.65625 150.976562 191.402344 151.308594 191.960938 151.839844 L 202.214844 144.800781 C 201.914062 144.324219 201.738281 143.765625 201.738281 143.164062 C 201.738281 142.878906 201.789062 142.613281 201.855469 142.347656 L 181.960938 132.035156 L 174.691406 139.933594 C 176.089844 141.441406 176.964844 143.441406 176.964844 145.660156 C 176.964844 146.273438 176.890625 146.867188 176.773438 147.4375 L 187.335938 152.246094 C 187.898438 151.480469 188.800781 150.976562 189.828125 150.976562 Z M 191.953125 156.355469 L 197.847656 166.132812 C 198.371094 165.914062 198.941406 165.792969 199.539062 165.792969 C 199.691406 165.792969 199.828125 165.820312 199.976562 165.839844 L 204.949219 146.265625 C 204.914062 146.265625 204.890625 146.273438 204.855469 146.273438 C 204.21875 146.273438 203.632812 146.078125 203.132812 145.75 L 192.703125 152.902344 C 192.855469 153.265625 192.933594 153.664062 192.933594 154.082031 C 192.933594 154.988281 192.554688 155.789062 191.953125 156.355469 Z M 205.699219 140.179688 C 206.492188 140.40625 207.148438 140.929688 207.546875 141.632812 L 222.582031 131.761719 C 222.324219 131.199219 222.171875 130.582031 222.171875 129.925781 C 222.171875 128.90625 222.535156 127.96875 223.117188 127.226562 L 209.574219 112.917969 C 209.195312 113.144531 208.769531 113.289062 208.3125 113.339844 Z M 188.640625 124.769531 L 182.875 131.039062 L 202.457031 141.195312 C 202.9375 140.617188 203.609375 140.214844 204.394531 140.101562 L 207.015625 113.222656 C 206.539062 113.070312 206.101562 112.816406 205.757812 112.464844 L 195.121094 119.320312 C 195.371094 119.871094 195.515625 120.480469 195.515625 121.125 C 195.515625 123.554688 193.542969 125.53125 191.113281 125.53125 C 190.199219 125.523438 189.351562 125.246094 188.640625 124.769531 Z M 166.796875 116.816406 C 167.726562 117.78125 168.320312 119.054688 168.472656 120.46875 L 186.78125 120.46875 C 186.964844 119.242188 187.640625 118.171875 188.621094 117.496094 L 181.304688 102.515625 C 181.066406 102.578125 180.8125 102.617188 180.554688 102.617188 C 180.023438 102.617188 179.535156 102.472656 179.097656 102.238281 Z M 163.292969 114.992188 C 164.214844 115.136719 165.070312 115.460938 165.804688 115.964844 L 178.089844 101.402344 C 177.6875 100.878906 177.429688 100.222656 177.429688 99.507812 C 177.429688 99.039062 177.542969 98.59375 177.726562 98.195312 L 168.652344 91.308594 C 167.585938 92.441406 166.109375 93.164062 164.445312 93.25 Z M 129.90625 126.617188 C 130.15625 127.015625 130.347656 127.441406 130.507812 127.890625 L 156.167969 121.886719 C 156.132812 121.632812 156.085938 121.382812 156.085938 121.117188 C 156.085938 117.789062 158.703125 115.089844 161.988281 114.917969 L 163.15625 93.171875 C 162.179688 93.019531 161.289062 92.648438 160.527344 92.097656 Z M 127.101562 124.207031 C 127.851562 124.53125 128.527344 124.996094 129.089844 125.570312 L 159.550781 91.230469 C 159.160156 90.804688 158.835938 90.320312 158.578125 89.804688 C 143.820312 96.796875 132.652344 109.335938 127.101562 124.207031 Z M 130.410156 173.039062 L 124.917969 136.128906 C 124.824219 136.136719 124.746094 136.15625 124.652344 136.15625 C 124.425781 136.15625 124.214844 136.117188 124.003906 136.089844 C 123.507812 139.226562 123.230469 142.421875 123.230469 145.648438 C 123.230469 155.53125 125.574219 164.871094 129.714844 173.164062 C 129.933594 173.105469 130.171875 173.0625 130.410156 173.039062 Z M 140.269531 148.902344 C 138.039062 147.957031 136.476562 145.742188 136.476562 143.164062 C 136.476562 139.722656 139.265625 136.933594 142.703125 136.933594 C 144.054688 136.933594 145.296875 137.375 146.324219 138.113281 L 157.722656 125.292969 C 157.167969 124.675781 156.738281 123.953125 156.457031 123.160156 L 130.800781 129.164062 C 130.832031 129.414062 130.878906 129.667969 130.878906 129.933594 C 130.878906 132.828125 128.890625 135.25 126.210938 135.945312 L 131.738281 173.085938 C 132.117188 173.15625 132.46875 173.296875 132.800781 173.457031 Z M 133.925781 174.230469 C 134.34375 174.628906 134.679688 175.113281 134.914062 175.648438 L 153.558594 170.683594 C 153.539062 170.527344 153.511719 170.367188 153.511719 170.199219 C 153.511719 168.921875 154.0625 167.78125 154.933594 166.980469 L 145.09375 148.917969 C 144.359375 149.222656 143.550781 149.394531 142.703125 149.394531 C 142.296875 149.394531 141.90625 149.347656 141.523438 149.273438 Z M 178.761719 205.417969 L 134.078125 180.585938 C 144.046875 195.085938 160.023438 205.125 178.390625 207.074219 C 178.457031 206.503906 178.582031 205.949219 178.761719 205.417969 Z M 181.125 201.8125 L 170.644531 188.023438 C 170.015625 188.371094 169.308594 188.582031 168.539062 188.582031 C 166.109375 188.582031 164.136719 186.605469 164.136719 184.171875 C 164.136719 184.128906 164.148438 184.082031 164.148438 184.027344 L 135.066406 178.671875 C 134.980469 178.945312 134.871094 179.207031 134.742188 179.453125 L 179.269531 204.199219 C 179.746094 203.296875 180.371094 202.488281 181.125 201.8125 Z M 189 157.082031 C 188.867188 157.042969 188.726562 157.011719 188.601562 156.957031 L 171.585938 181.011719 C 172.421875 181.8125 172.945312 182.933594 172.945312 184.179688 C 172.945312 185.375 172.46875 186.453125 171.691406 187.25 L 182.152344 201.011719 C 183.421875 200.1875 184.925781 199.703125 186.542969 199.671875 Z M 189.019531 200.007812 L 197.5625 174.113281 C 196.132812 173.382812 195.140625 171.910156 195.140625 170.195312 C 195.140625 168.828125 195.769531 167.628906 196.742188 166.820312 L 190.835938 157.015625 C 190.664062 157.078125 190.488281 157.121094 190.304688 157.148438 L 187.847656 199.757812 C 188.246094 199.816406 188.636719 199.902344 189.019531 200.007812 Z M 223.957031 167.683594 C 223.238281 167.136719 222.695312 166.382812 222.410156 165.5 L 203.625 168.5625 C 203.828125 169.074219 203.949219 169.625 203.949219 170.199219 C 203.949219 172.632812 201.976562 174.609375 199.542969 174.609375 C 199.292969 174.609375 199.046875 174.574219 198.800781 174.535156 L 190.25 200.453125 C 191.058594 200.824219 191.789062 201.320312 192.429688 201.917969 Z M 227.9375 189.921875 C 227.898438 189.875 227.859375 189.820312 227.820312 189.773438 L 194.597656 205.1875 C 194.761719 205.644531 194.902344 206.113281 194.992188 206.605469 C 207.691406 204.515625 219.089844 198.53125 227.9375 189.921875 Z M 230.304688 180.03125 L 227.105469 168.511719 C 226.925781 168.53125 226.753906 168.5625 226.574219 168.5625 C 226.070312 168.5625 225.59375 168.464844 225.144531 168.304688 L 193.296875 202.886719 C 193.578125 203.238281 193.816406 203.601562 194.035156 204 L 227.078125 188.675781 C 226.628906 187.8125 226.347656 186.851562 226.347656 185.8125 C 226.363281 183.179688 228 180.945312 230.304688 180.03125 Z M 246.492188 150.03125 C 245.78125 149.832031 245.167969 149.402344 244.761719 148.804688 L 230.257812 161.75 C 230.707031 162.4375 230.980469 163.265625 230.980469 164.15625 C 230.980469 165.945312 229.90625 167.484375 228.371094 168.171875 L 231.5625 179.6875 C 231.894531 179.632812 232.230469 179.582031 232.582031 179.582031 C 233.789062 179.582031 234.902344 179.9375 235.855469 180.527344 C 241.894531 171.730469 245.703125 161.292969 246.492188 150.03125 Z M 253.3125 121.117188 C 251.589844 121.117188 250.199219 122.507812 250.199219 124.230469 C 250.199219 125.957031 251.589844 127.347656 253.3125 127.347656 C 255.035156 127.347656 256.425781 125.957031 256.425781 124.230469 C 256.425781 122.515625 255.027344 121.117188 253.3125 121.117188 Z M 197.648438 87.011719 C 200.167969 87.011719 200.171875 83.09375 197.648438 83.09375 C 195.132812 83.09375 195.132812 87.011719 197.648438 87.011719 Z M 230.304688 109.644531 C 232.820312 109.644531 232.828125 105.726562 230.304688 105.726562 C 227.785156 105.726562 227.78125 109.644531 230.304688 109.644531 Z M 220.28125 96.390625 C 222.800781 96.390625 222.804688 92.476562 220.28125 92.476562 C 217.765625 92.476562 217.757812 96.390625 220.28125 96.390625 Z M 220.28125 96.390625 " clip-rule="nonzero"/></clipPath><linearGradient x1="1820.417478" gradientTransform="matrix(0.0662347, 0, 0, 0.066285, 118.426722, 80.815428)" y1="2211.287539" x2="319.071485" gradientUnits="userSpaceOnUse" y2="-198.765881" id="d1cd9d5d1d"><stop stop-opacity="1" stop-color="rgb(7.516479%, 41.668701%, 71.578979%)" offset="0"/><stop stop-opacity="1" stop-color="rgb(7.397461%, 41.7099%, 71.612549%)" offset="0.03125"/><stop stop-opacity="1" stop-color="rgb(7.16095%, 41.793823%, 71.679688%)" offset="0.0625"/><stop stop-opacity="1" stop-color="rgb(6.924438%, 41.876221%, 71.7453%)" offset="0.09375"/><stop stop-opacity="1" stop-color="rgb(6.687927%, 41.958618%, 71.812439%)" offset="0.125"/><stop stop-opacity="1" stop-color="rgb(6.44989%, 42.042542%, 71.879578%)" offset="0.15625"/><stop stop-opacity="1" stop-color="rgb(6.213379%, 42.124939%, 71.946716%)" offset="0.1875"/><stop stop-opacity="1" stop-color="rgb(5.976868%, 42.207336%, 72.012329%)" offset="0.21875"/><stop stop-opacity="1" stop-color="rgb(5.740356%, 42.289734%, 72.079468%)" offset="0.25"/><stop stop-opacity="1" stop-color="rgb(5.503845%, 42.373657%, 72.146606%)" offset="0.28125"/><stop stop-opacity="1" stop-color="rgb(5.267334%, 42.456055%, 72.213745%)" offset="0.3125"/><stop stop-opacity="1" stop-color="rgb(5.030823%, 42.538452%, 72.279358%)" offset="0.34375"/><stop stop-opacity="1" stop-color="rgb(4.794312%, 42.62085%, 72.346497%)" offset="0.375"/><stop stop-opacity="1" stop-color="rgb(4.556274%, 42.704773%, 72.413635%)" offset="0.387981"/><stop stop-opacity="1" stop-color="rgb(4.438782%, 42.745972%, 72.447205%)" offset="0.40625"/><stop stop-opacity="1" stop-color="rgb(4.319763%, 42.78717%, 72.480774%)" offset="0.4375"/><stop stop-opacity="1" stop-color="rgb(4.083252%, 42.869568%, 72.546387%)" offset="0.46875"/><stop stop-opacity="1" stop-color="rgb(3.846741%, 42.953491%, 72.613525%)" offset="0.5"/><stop stop-opacity="1" stop-color="rgb(3.610229%, 43.035889%, 72.680664%)" offset="0.53125"/><stop stop-opacity="1" stop-color="rgb(3.373718%, 43.118286%, 72.747803%)" offset="0.5625"/><stop stop-opacity="1" stop-color="rgb(3.137207%, 43.200684%, 72.813416%)" offset="0.59375"/><stop stop-opacity="1" stop-color="rgb(2.900696%, 43.284607%, 72.880554%)" offset="0.612019"/><stop stop-opacity="1" stop-color="rgb(2.783203%, 43.325806%, 72.914124%)" offset="0.625"/><stop stop-opacity="1" stop-color="rgb(2.664185%, 43.367004%, 72.947693%)" offset="0.65625"/><stop stop-opacity="1" stop-color="rgb(2.426147%, 43.449402%, 73.014832%)" offset="0.6875"/><stop stop-opacity="1" stop-color="rgb(2.189636%, 43.531799%, 73.080444%)" offset="0.71875"/><stop stop-opacity="1" stop-color="rgb(1.953125%, 43.615723%, 73.147583%)" offset="0.75"/><stop stop-opacity="1" stop-color="rgb(1.716614%, 43.69812%, 73.214722%)" offset="0.78125"/><stop stop-opacity="1" stop-color="rgb(1.480103%, 43.780518%, 73.28186%)" offset="0.8125"/><stop stop-opacity="1" stop-color="rgb(1.243591%, 43.862915%, 73.347473%)" offset="0.84375"/><stop stop-opacity="1" stop-color="rgb(1.00708%, 43.946838%, 73.414612%)" offset="0.875"/><stop stop-opacity="1" stop-color="rgb(0.770569%, 44.029236%, 73.48175%)" offset="0.90625"/><stop stop-opacity="1" stop-color="rgb(0.532532%, 44.111633%, 73.548889%)" offset="0.9375"/><stop stop-opacity="1" stop-color="rgb(0.296021%, 44.195557%, 73.614502%)" offset="0.96875"/><stop stop-opacity="1" stop-color="rgb(0.088501%, 44.267273%, 73.674011%)" offset="1"/></linearGradient></defs><g clip-path="url(#f1ddf3d2ec)"><g clip-path="url(#44efecadf6)"><path fill="url(#d1cd9d5d1d)" d="M 118.425781 80.816406 L 118.425781 216.527344 L 256.425781 216.527344 L 256.425781 80.816406 Z M 118.425781 80.816406 " fill-rule="nonzero"/></g></g><g fill="#ffffff" fill-opacity="1"><g transform="translate(160.797527, 259.163097)"><g><path d="M 26.5625 0 L 19.15625 0 L 9.28125 -13.6875 L 9.28125 0 L 3.203125 0 L 3.203125 -28 L 9.28125 -28 L 9.28125 -15.078125 L 18.4375 -28 L 25.515625 -28 L 15.953125 -14.59375 Z M 26.5625 0 "/></g></g></g><g fill="#ffffff" fill-opacity="1"><g transform="translate(187.034925, 259.163097)"><g><path d="M 26.515625 -28 L 16.6875 -11.3125 L 16.6875 0 L 10.4375 0 L 10.4375 -11.359375 L 0.6875 -28 L 7.125 -28 L 13.59375 -16.796875 L 20.078125 -28 Z M 26.515625 -28 "/></g></g></g></svg>