<svg xmlns="http://www.w3.org/2000/svg" version="1.1" xmlns:xlink="http://www.w3.org/1999/xlink" viewBox="0 0 1.98943963644692 2.404479104012119"><g transform="matrix(1,0,0,1,0.18209774791096,1.2061313561011593)"><g clip-path="url(#SvgjsClipPath1001)"><g clip-path="url(#SvgjsClipPath100089204ff0-8569-4fa3-b3a5-c28fd6289a31)"><path d=" M 1.190288548420662 -0.7990607399697178 C 1.1797462106771115 -0.8205556532691597 1.1639481847339495 -0.8400148581790613 1.1435214378138103 -0.855201397571753 C 1.115756852288028 -0.8758758352465132 1.0829765289811726 -0.8859769738333954 1.0507689905443787 -0.8859460124890677 C 1.027037120117267 -0.8859460124890677 1.0034987580922032 -0.8805432579039001 0.9819961044566794 -0.8699854394881859 C 0.9605011911572375 -0.8594431017446353 0.9410342459112541 -0.8436450758014733 0.9258554468546443 -0.823218328881334 C 0.9051810091798841 -0.7954537433555515 0.895079870593002 -0.7626734200486966 0.8951108319373295 -0.7304658816119023 C 0.8951108319373295 -0.7067340111847908 0.9005135865224971 -0.6831956491597269 0.9110714049382114 -0.661692995524203 C 0.9216137426817618 -0.6401980822247613 0.9374117686249238 -0.6207311369787778 0.9578385155450633 -0.6055523379221679 C 0.96156935753654 -0.6027735572687651 0.9654085642331635 -0.6002192463617375 0.9693096936184419 -0.5978197421763479 C 0.9614377718231475 -0.556896585311332 0.9301745543883456 -0.5156405939947944 0.9022087201244335 -0.488742926110185 C 0.8668586052383871 -0.4531528608055996 0.8215776391592605 -0.42354607529232446 0.778247237772773 -0.39808036958286697 L 0.8208732685758076 -0.4121058585632734 C 0.9018139629842565 -0.4420919205445617 0.9833351825988486 -0.4846715093311046 1.027973700783177 -0.5630656331686079 C 1.0301564755582735 -0.5672067129724255 1.0321999242838955 -0.5714638978174715 1.0341659696486987 -0.575775265015091 C 1.0396383872586035 -0.5751947398089483 1.0451185452045901 -0.5747999826687713 1.050583222478413 -0.5747999826687713 C 1.0743150929055245 -0.5747999826687713 1.0978534549305883 -0.5802027372539389 1.119356108566112 -0.5907605556696532 C 1.1408510218655539 -0.6013028934132038 1.1603179671115376 -0.6171009193563657 1.175496766168147 -0.6375276662765051 C 1.1961712038429075 -0.6652922518022876 1.2062723424297896 -0.6980725751091424 1.2062413810854618 -0.7302801135459367 C 1.206249121421544 -0.7540197243091302 1.200854107172458 -0.7775580863341941 1.190288548420662 -0.7990607399697178 Z M 1.110299915350287 -0.6860363525017849 C 1.1029233750642342 -0.6761364626530322 1.0937820381515082 -0.6687599223669797 1.0835338331790698 -0.6637132232415794 C 1.0732933685427135 -0.6586820047883433 1.0619615165188092 -0.6560735115287423 1.050590962814495 -0.6560735115287423 C 1.0351025503146092 -0.6561044728730698 1.0197766848724432 -0.6607873762026206 1.0063394614342611 -0.6707646694121923 L 1.0063394614342611 -0.6707646694121923 C 0.9964395715855086 -0.6781412096982449 0.9890552909633742 -0.6872825466109711 0.9840085918379741 -0.6975307515834093 C 0.9789773733847377 -0.7077712162197657 0.9763688801251369 -0.7191030682436702 0.9763688801251369 -0.7304736219479843 C 0.9763998414694645 -0.7459620344478701 0.9810827447990151 -0.7612801595539542 0.9910600380085869 -0.774725123328218 C 0.9984365782946394 -0.7846250131769706 1.0075779152073656 -0.7920092937991051 1.0178261201798038 -0.7970559929245052 C 1.0280665848161603 -0.8020872113777415 1.0393984368400648 -0.8046957046373425 1.0507689905443787 -0.8046957046373425 C 1.0662496627081828 -0.8046647432930149 1.0815755281503487 -0.7999818399634642 1.0950204919246125 -0.7900045467538925 C 1.1049203817733653 -0.7826280064678399 1.1122969220594179 -0.7734866695551137 1.1173513615208996 -0.7632384645826755 C 1.1223825799741358 -0.7529979999463191 1.124991073233737 -0.7416661479224146 1.124991073233737 -0.7302955942181005 C 1.1249601118894095 -0.7148071817182147 1.1202772085598585 -0.6994813162760487 1.110299915350287 -0.6860363525017849 Z" fill="#ffffff" transform="matrix(1,0,0,1,0,0)" fill-rule="nonzero"></path></g><g clip-path="url(#SvgjsClipPath100089204ff0-8569-4fa3-b3a5-c28fd6289a31)"><path d=" M 0.44131040812757943 -0.5518111845055225 C 0.4364804384124726 -0.5588394096678895 0.4313176342458439 -0.5656199440756355 0.4255665645369908 -0.5718818759658941 C 0.3957353092773405 -0.6044764312067835 0.35362788099179365 -0.626474466351549 0.30611769812107925 -0.630352374728582 C 0.30106325865959727 -0.6307703528770046 0.2960320402063609 -0.6309716016151341 0.2910395234335341 -0.6309716016151341 C 0.24405568341638903 -0.630979341951216 0.20050855261960843 -0.612890176527811 0.16795269905912863 -0.5830047389155875 C 0.13536588415432121 -0.5531734836559371 0.11336784900955574 -0.5110660553703903 0.10948994063252285 -0.4635558724996759 C 0.10907196248410013 -0.45850917337427577 0.10887071374597068 -0.4534779549210395 0.10887071374597068 -0.44847769781213065 C 0.10886297340988878 -0.4014938577949856 0.12695213883329373 -0.35794672699820496 0.15683757644551732 -0.3253908734377253 C 0.18666883170516763 -0.29279631819683594 0.2287762599907145 -0.27079828305207054 0.2762864428614289 -0.2669203746750377 C 0.28134088232291093 -0.26651013686269687 0.2863643604400653 -0.26630114778848557 0.29135687721289205 -0.26630114778848557 C 0.3383407172300372 -0.2662934074524036 0.3818878480268178 -0.2843825728758085 0.4144437015872976 -0.3142680104880322 C 0.4470382568281869 -0.34409926574768235 0.4690362919729523 -0.38620669403322927 0.47291420034998527 -0.4337168769039438 L 0.47291420034998527 -0.4337323575761075 C 0.4733244381623261 -0.43877131636542577 0.4735334272365374 -0.4437947944825802 0.4735334272365374 -0.4487950515914889 C 0.4735334272365374 -0.46010368260714773 0.47243429951290733 -0.4711955842125133 0.4704295524676948 -0.4819933530467665 C 0.5092008959019418 -0.5167629427266703 0.5607902358878187 -0.5416171618856576 0.6129368800715924 -0.5308193930514044 C 0.6801616989429111 -0.5157489586999411 0.7247692557829124 -0.4556142876796446 0.7579443362299444 -0.3980803695828671 C 0.7464963791648114 -0.43160376515358456 0.73253281287306 -0.4649336523222546 0.7116571264601704 -0.4952835100993923 C 0.6457713857310206 -0.5961323489104933 0.5357115469824563 -0.6015196228234969 0.44131040812757943 -0.5518111845055225 Z M 0.291364617548974 -0.34756693631237445 C 0.28858583689557116 -0.34756693631237445 0.2857760948978408 -0.34768304135360295 0.28293539155578273 -0.34791525143606017 C 0.2564015194670227 -0.3501135068833202 0.23345142298418325 -0.3621497294906778 0.2167400373833569 -0.38031629827490177 C 0.2000828341351038 -0.39852156873953537 0.19014424260594165 -0.4224624282408582 0.19013650226985973 -0.44848543814821273 C 0.19013650226985973 -0.4512642188016156 0.19025260731108826 -0.45407396079934603 0.1904848173935453 -0.4568991834692403 C 0.1926830728408055 -0.48344853623016404 0.20471929544816309 -0.5063986327130034 0.22288586423238707 -0.5231100183138299 C 0.24109113469702056 -0.5397672215620829 0.26503199419834345 -0.5497058130912451 0.29105500410569796 -0.549713553427327 C 0.29384152509518263 -0.549713553427327 0.29664352675683114 -0.5495974483860986 0.2994687494267254 -0.5493652383036414 C 0.32601810218764926 -0.5471669828563812 0.34896819867048867 -0.5351307602490236 0.3656795842713151 -0.5169641914647995 C 0.3823367875195682 -0.49875892100016617 0.3922753790487303 -0.4748180614988432 0.39228311938481225 -0.4487950515914887 C 0.39228311938481225 -0.4460240112741678 0.39216701434358375 -0.4432065289403554 0.39193480426112665 -0.4403658255982974 C 0.38972880847778457 -0.4138319535095374 0.3777003262065089 -0.390881857026698 0.3595337574222849 -0.37417047142587156 C 0.3413284869576514 -0.3575132681776185 0.31737988712024656 -0.3475746766484563 0.291364617548974 -0.34756693631237445 Z" fill="#00ffff" transform="matrix(1,0,0,1,0,0)" fill-rule="nonzero"></path></g><g clip-path="url(#SvgjsClipPath100089204ff0-8569-4fa3-b3a5-c28fd6289a31)"><path d=" M 0.6589531780784997 -0.7147452590295593 C 0.6359024572265956 -0.730016942119152 0.6103283868119913 -0.7417822529636431 0.5834771609438734 -0.7487795167816824 C 0.582710867671765 -0.7560322116904246 0.5813950105378416 -0.7633081276074125 0.5793515618122196 -0.7705066401635814 C 0.5713712753117787 -0.7987124248460322 0.5543347955955122 -0.8223359305679971 0.5324528654919753 -0.8385983766760732 C 0.5105709353884385 -0.8548917841284769 0.48370422884815656 -0.8641414857463497 0.4555371458461152 -0.8641492260824317 C 0.44388019970677084 -0.8641492260824317 0.43202974516537884 -0.8625547168495599 0.42036505868995255 -0.8592418530065058 C 0.3921670143435836 -0.8512693068421467 0.3685357682855368 -0.8342250867897986 0.35227332217746077 -0.8123431566862617 C 0.33597991472505706 -0.7904612265827247 0.32673021310718414 -0.7635945200424429 0.3267224727711022 -0.7354274370404015 C 0.3267224727711022 -0.7237704909010572 0.32832472234005594 -0.7119200363596652 0.33162984584702815 -0.7002553498842389 C 0.33961013234746906 -0.6720573055378698 0.3566466120637354 -0.6484260594798231 0.3785285421672723 -0.632163613371747 C 0.4004104722708092 -0.6158702059193434 0.42727717881109106 -0.6066205043014704 0.4554442618131324 -0.6066127639653885 C 0.4671012079524768 -0.6066127639653885 0.4789516624938688 -0.6082072731982603 0.49060860863321315 -0.6115201370413145 L 0.49060860863321315 -0.6115201370413145 C 0.5188066529795821 -0.6195004235417554 0.5424378990376288 -0.6365369032580217 0.558700345145705 -0.6584188333615586 C 0.5627098392361302 -0.6637983669384806 0.566278134169887 -0.6694875139586784 0.5693974896108935 -0.6754166113974154 C 0.6593866368990862 -0.6719876425131328 0.7225477793274064 -0.5989420909082237 0.7455830195071468 -0.5115846578878778 C 0.7551887765847871 -0.4778987152594404 0.7602819177266786 -0.44240927432391963 0.762789786617215 -0.4066102199451229 C 0.7776202705501393 -0.5171422191946834 0.7599026412586656 -0.6478687552819261 0.6589531780784997 -0.7147452590295593 Z M 0.4935344556721722 -0.7069662212672478 C 0.4874428111757153 -0.6988388683812508 0.47902132551860593 -0.6927240028765482 0.4684480264307278 -0.6897052718046064 C 0.46403603486404366 -0.6884590776954203 0.45970918699426044 -0.6878862928253595 0.4554520021492143 -0.6878785524892775 C 0.44520379717677605 -0.6878708121531956 0.43521102329504063 -0.6912843003653144 0.42708367040904355 -0.6973372431813618 C 0.41895631752304646 -0.7034288876778186 0.41284145201834394 -0.7118503733349281 0.4098227209464021 -0.7224236724228061 C 0.40857652683721585 -0.7268356639894904 0.4080037419671551 -0.7311625118592735 0.4079960016310732 -0.7354196967043196 C 0.40798826129499133 -0.745667901676758 0.4113940091710282 -0.7556606755584934 0.41745469232315746 -0.7637880284444905 C 0.42354633681961434 -0.7719153813304875 0.4319678224767237 -0.7780302468351901 0.4425411215646018 -0.7810489779071319 C 0.44695311313128594 -0.7822951720163182 0.4512799610010692 -0.7828679568863789 0.45553714584611527 -0.7828756972224608 C 0.4657853508185535 -0.7828834375585427 0.47577812470028896 -0.7794699493464239 0.48390547758628605 -0.7734170065303765 C 0.4920328304722832 -0.7673253620339197 0.4981476959769857 -0.7589038763768103 0.5011664270489276 -0.7483228369528503 C 0.5024126211581137 -0.743918585722248 0.5029854060281744 -0.7395839975163829 0.5029931463642564 -0.7353268126713368 C 0.5030008867003384 -0.7250863480349805 0.4995951388243015 -0.7150935741532449 0.4935344556721722 -0.7069662212672478 Z" fill="#02dbee" transform="matrix(1,0,0,1,0,0)" fill-rule="nonzero"></path></g><g clip-path="url(#SvgjsClipPath100089204ff0-8569-4fa3-b3a5-c28fd6289a31)"><path d=" M 0.774872451241064 -0.4066179602812048 L 0.800299455270112 -0.44910466503476487 C 0.8459519574811699 -0.5319030401028706 0.8877962143399322 -0.6244310176259269 0.8703727178195707 -0.7221682413321033 C 0.8687317665702076 -0.731835921098399 0.865380201046744 -0.7418906176687896 0.8621757019088365 -0.7511480596227444 C 0.8596678330183003 -0.756945571348089 0.8571831851360097 -0.7624489503023214 0.8545359901959992 -0.7677046385019328 C 0.8555422338866465 -0.7688037662255629 0.8566336212741947 -0.7698332309244559 0.8576011632844324 -0.7709633199924135 C 0.8809692379156946 -0.7980003139264972 0.8948631411827087 -0.8332265834352331 0.8948631411827087 -0.8708755781376045 C 0.8948631411827087 -0.8778883226278077 0.8943832403456308 -0.8849707301427481 0.8933924773271472 -0.892076358665934 C 0.8881135681192901 -0.930228475213629 0.8689562363165827 -0.9634577380132343 0.8418960213742533 -0.9867793706280049 C 0.8148590274401697 -1.0101397049231853 0.7796250175953519 -1.0240336081901993 0.7419760228929805 -1.0240336081901993 C 0.7349632784027772 -1.0240336081901993 0.7278731305517551 -1.0235537073531213 0.720775242364651 -1.022562944334638 C 0.6826308661530379 -1.0172840351267807 0.6493938630173507 -0.9981267033240733 0.62607223040258 -0.9710664883817439 C 0.6027041557713179 -0.9440294944476603 0.5888179928403857 -0.9088032249389243 0.5888102525043037 -0.871154230236553 C 0.5888102525043037 -0.8641337454102679 0.5892978936774637 -0.8570513378953275 0.5902809163598652 -0.8499534497082234 C 0.5955598255677224 -0.8118090734966104 0.6147171573704298 -0.7785720703609232 0.6417773723127591 -0.7552504377461525 C 0.6688143662468428 -0.7318823631148904 0.7040406357555787 -0.7179884598478763 0.7416896304579501 -0.7179884598478763 C 0.7487023749481532 -0.7179884598478763 0.7557847824630937 -0.7184683606849542 0.7628904109862796 -0.7194591237034378 L 0.7628904109862796 -0.7194591237034378 C 0.7733940470494207 -0.7209143068868353 0.783471964628057 -0.7235073194742725 0.7931241637221889 -0.7269440286946369 C 0.8009728645092375 -0.7171834648953586 0.8066233098490261 -0.7052401263209838 0.8109811190631369 -0.6939934179939802 C 0.8353476970489643 -0.6169615933068915 0.8145881156773032 -0.5290855577690581 0.7909878309635839 -0.4531915624860091 L 0.774872451241064 -0.4066179602812048 Z M 0.7517056253479313 -0.7999508786191365 L 0.7517056253479313 -0.7999508786191365 C 0.7483153581440583 -0.7994787181181405 0.7449792732927584 -0.7992542483717654 0.7416896304579501 -0.7992542483717654 C 0.7241345482241964 -0.7992542483717654 0.7076940743862365 -0.8057096886640717 0.6948992988428525 -0.816747407916864 C 0.6821277443077142 -0.8278315691861475 0.673303761174346 -0.8430568102592488 0.6707726712755641 -0.8611382353465719 C 0.670300510774568 -0.8645362428865269 0.6700760410281928 -0.8678723277378266 0.6700760410281928 -0.871154230236553 C 0.6700760410281928 -0.8887093124703067 0.6765314813204991 -0.9051497863082666 0.6875692005732914 -0.9179445618516506 C 0.6986533618425751 -0.9307161163867889 0.7138786029156763 -0.9395400995201572 0.7319600280029993 -0.9420711894189391 C 0.7353502952068725 -0.9425433499199352 0.7386941203942541 -0.9427678196663103 0.7419760228929806 -0.9427678196663103 C 0.7595311051267343 -0.9427678196663103 0.775971578964694 -0.936312379374004 0.7887663545080782 -0.9252746601212117 C 0.8015379090432164 -0.9141904988519282 0.8103618921765847 -0.898965257778827 0.8128929820753666 -0.8808838326915038 C 0.8133651425763627 -0.8774935654876308 0.8135896123227377 -0.874157480636331 0.8135896123227377 -0.8708678378015227 C 0.8135896123227377 -0.8533127555677689 0.8071341720304316 -0.8368722817298091 0.7960964527776393 -0.8240775061864252 C 0.7850200318444374 -0.8113059516512868 0.7697870504352544 -0.8024819685179185 0.7517056253479313 -0.7999508786191365 Z" fill="#03c1ed" transform="matrix(1,0,0,1,0,0)" fill-rule="nonzero"></path></g><g clip-path="url(#SvgjsClipPath100089204ff0-8569-4fa3-b3a5-c28fd6289a31)"><path d=" M 1.190288548420662 -0.7990607399697178 C 1.1797462106771115 -0.8205556532691597 1.1639481847339495 -0.8400148581790613 1.1435214378138103 -0.855201397571753 C 1.115756852288028 -0.8758758352465132 1.0829765289811726 -0.8859769738333954 1.0507689905443787 -0.8859460124890677 C 1.027037120117267 -0.8859460124890677 1.0034987580922032 -0.8805432579039001 0.9819961044566794 -0.8699854394881859 C 0.9605011911572375 -0.8594431017446353 0.9410342459112541 -0.8436450758014733 0.9258554468546443 -0.823218328881334 C 0.9051810091798841 -0.7954537433555515 0.895079870593002 -0.7626734200486966 0.8951108319373295 -0.7304658816119023 C 0.8951108319373295 -0.7067340111847908 0.9005135865224971 -0.6831956491597269 0.9110714049382114 -0.661692995524203 C 0.9216137426817618 -0.6401980822247613 0.9374117686249238 -0.6207311369787778 0.9578385155450633 -0.6055523379221679 C 0.96156935753654 -0.6027735572687651 0.9654085642331635 -0.6002192463617375 0.9693096936184419 -0.5978197421763479 C 0.9614377718231475 -0.556896585311332 0.9301745543883456 -0.5156405939947944 0.9022087201244335 -0.488742926110185 C 0.8668586052383871 -0.4531528608055996 0.8215776391592605 -0.42354607529232446 0.778247237772773 -0.39808036958286697 L 0.8208732685758076 -0.4121058585632734 C 0.9018139629842565 -0.4420919205445617 0.9833351825988486 -0.4846715093311046 1.027973700783177 -0.5630656331686079 C 1.0301564755582735 -0.5672067129724255 1.0321999242838955 -0.5714638978174715 1.0341659696486987 -0.575775265015091 C 1.0396383872586035 -0.5751947398089483 1.0451185452045901 -0.5747999826687713 1.050583222478413 -0.5747999826687713 C 1.0743150929055245 -0.5747999826687713 1.0978534549305883 -0.5802027372539389 1.119356108566112 -0.5907605556696532 C 1.1408510218655539 -0.6013028934132038 1.1603179671115376 -0.6171009193563657 1.175496766168147 -0.6375276662765051 C 1.1961712038429075 -0.6652922518022876 1.2062723424297896 -0.6980725751091424 1.2062413810854618 -0.7302801135459367 C 1.206249121421544 -0.7540197243091302 1.200854107172458 -0.7775580863341941 1.190288548420662 -0.7990607399697178 Z M 1.110299915350287 -0.6860363525017849 C 1.1029233750642342 -0.6761364626530322 1.0937820381515082 -0.6687599223669797 1.0835338331790698 -0.6637132232415794 C 1.0732933685427135 -0.6586820047883433 1.0619615165188092 -0.6560735115287423 1.050590962814495 -0.6560735115287423 C 1.0351025503146092 -0.6561044728730698 1.0197766848724432 -0.6607873762026206 1.0063394614342611 -0.6707646694121923 L 1.0063394614342611 -0.6707646694121923 C 0.9964395715855086 -0.6781412096982449 0.9890552909633742 -0.6872825466109711 0.9840085918379741 -0.6975307515834093 C 0.9789773733847377 -0.7077712162197657 0.9763688801251369 -0.7191030682436702 0.9763688801251369 -0.7304736219479843 C 0.9763998414694645 -0.7459620344478701 0.9810827447990151 -0.7612801595539542 0.9910600380085869 -0.774725123328218 C 0.9984365782946394 -0.7846250131769706 1.0075779152073656 -0.7920092937991051 1.0178261201798038 -0.7970559929245052 C 1.0280665848161603 -0.8020872113777415 1.0393984368400648 -0.8046957046373425 1.0507689905443787 -0.8046957046373425 C 1.0662496627081828 -0.8046647432930149 1.0815755281503487 -0.7999818399634642 1.0950204919246125 -0.7900045467538925 C 1.1049203817733653 -0.7826280064678399 1.1122969220594179 -0.7734866695551137 1.1173513615208996 -0.7632384645826755 C 1.1223825799741358 -0.7529979999463191 1.124991073233737 -0.7416661479224146 1.124991073233737 -0.7302955942181005 C 1.1249601118894095 -0.7148071817182147 1.1202772085598585 -0.6994813162760487 1.110299915350287 -0.6860363525017849 Z" fill="#0991ce" transform="matrix(1,0,0,1,0,0)" fill-rule="nonzero"></path></g><g clip-path="url(#SvgjsClipPath100089204ff0-8569-4fa3-b3a5-c28fd6289a31)"><path d=" M 1.5163734268790292 -0.43374009791218937 C 1.5163734268790292 -0.33224881120629046 1.4341168753366569 -0.2499999999999999 1.3325404449338571 -0.2499999999999999 C 1.329467531509342 -0.2499999999999999 1.3264875021178097 -0.25027091176286653 1.3234223290293765 -0.25044893949275027 L 1.3232443012994928 -0.2499999999999999 L 0.40217526889748295 -0.2499999999999999 C 0.4174314713149118 -0.25857629237874735 0.43178979474683993 -0.2688709393676769 0.4449715870943191 -0.28096908466368975 C 0.4873189657984049 -0.31979461045051005 0.5132336110006128 -0.37270754790639216 0.5179242546662454 -0.43004021726504027 C 0.5184660781919785 -0.4362711878109714 0.5186441059218623 -0.44258730205380337 0.5186441059218623 -0.4488182725997345 C 0.5186441059218623 -0.4533308885354833 0.5185512218888795 -0.45793638850421503 0.5182803101260128 -0.46254188847294675 C 0.5416638654294388 -0.4792455337376913 0.5658678963575463 -0.4881856219122881 0.5878968928466393 -0.4881856219122881 C 0.5932222440709879 -0.4881856219122881 0.5986404793283193 -0.4876437983865549 0.6030679515671673 -0.4867381790649723 C 0.6440607714569202 -0.47752717912750897 0.6798133838192255 -0.4432142692764375 0.7188246776720116 -0.37550180923195875 C 0.7271300582878925 -0.36114348580003064 0.7423011170084204 -0.3529309892171326 0.7579211152216986 -0.3529309892171326 L 0.7782394974366914 -0.3529309892171326 C 0.7829378814384059 -0.3529309892171326 0.7877214091370213 -0.3536508404727494 0.7924120528026539 -0.3551911673530479 L 0.8350303432696062 -0.3691856949891268 L 0.8365629298138229 -0.36982040254784276 C 0.9063575402643331 -0.39564216371706784 1.004141205987001 -0.4400639524911034 1.0607540240900324 -0.5299060333937399 C 1.0879303440735901 -0.5313534762410556 1.1148357522942813 -0.5383042980426036 1.1392178109522728 -0.5502244156087326 C 1.1427396638695382 -0.5519427702189148 1.1462615167868035 -0.5538391525589808 1.1496904856710861 -0.5558206785959477 C 1.152941426825485 -0.557624176903031 1.1561923679798838 -0.5596134432760798 1.1593504251012998 -0.5616878533460294 C 1.162152426762948 -0.5634062079562118 1.1648615443916137 -0.5653025902962777 1.1675706620202795 -0.5672841163332447 C 1.1691032485644963 -0.568274879351728 1.1705506914118118 -0.5694514104361772 1.1719981342591277 -0.5705350574876435 C 1.176696518260842 -0.5740569104049089 1.1812091341965911 -0.5778496750850409 1.185543722402456 -0.5818204674950567 C 1.1869911652497716 -0.5830821422764068 1.1884308677610056 -0.5844367010907396 1.1897854265753383 -0.5857912599050723 C 1.1978198954283528 -0.5933767892653363 1.20513451302575 -0.6016821698812171 1.2117292793675305 -0.610622258055814 C 1.2373730128068718 -0.6450203116037865 1.2514604244759333 -0.6875534583738379 1.2513675404429505 -0.7303497765706741 C 1.2513675404429505 -0.7402806277637544 1.2506476891873337 -0.7502114789568346 1.2490222186101345 -0.7599643024200311 C 1.2582332185475975 -0.762495392318813 1.2679860420107945 -0.7638499511331458 1.278094920933758 -0.7638499511331458 C 1.3295604155423244 -0.7638499511331458 1.372813413567993 -0.7288171900264575 1.385267614323773 -0.6813224878279067 C 1.3877058201895722 -0.6722895156203272 1.388967494970922 -0.6627224602230963 1.388967494970922 -0.6529696367598998 C 1.388967494970922 -0.6380694898022385 1.385894581546407 -0.6239820781331769 1.3805692303220587 -0.6109860538516634 C 1.458762105421433 -0.5898549363480707 1.5163734268790292 -0.5186206233863266 1.5163734268790292 -0.43374009791218937 Z" fill="#0874b7" transform="matrix(1,0,0,1,0,0)" fill-rule="nonzero"></path></g></g><g><path d=" M 0.31875000000000003 0.5722499999999999 Q 0.29775 0.54375 0.274125 0.505875 Q 0.2505 0.46799999999999997 0.22425 0.4245 Q 0.198 0.381 0.172125 0.33299999999999996 Q 0.14625 0.2849999999999999 0.12075 0.23624999999999996 Q 0.09525 0.1875 0.07275 0.13912499999999994 Q 0.05025 0.09075 0.0315 0.046499999999999986 Q 0.1005 0.02024999999999999 0.16425 0.010499999999999954 Q 0.228 0.0007499999999999174 0.2685 0 Q 0.2745 0.014249999999999985 0.286875 0.04499999999999993 Q 0.29925 0.07574999999999998 0.31575000000000003 0.11474999999999991 Q 0.33225 0.15374999999999994 0.35025 0.19499999999999995 Q 0.36825 0.23624999999999996 0.385125 0.2729999999999999 Q 0.402 0.30974999999999997 0.41475 0.3344999999999999 Q 0.42225 0.31799999999999995 0.437625 0.2865 Q 0.453 0.255 0.472125 0.21637499999999998 Q 0.49125 0.17774999999999996 0.5115000000000001 0.1379999999999999 Q 0.5317500000000001 0.09824999999999995 0.5493750000000001 0.0648749999999999 Q 0.5670000000000001 0.03149999999999997 0.579 0.011249999999999982 Q 0.62025 0.014249999999999985 0.66225 0.026999999999999913 Q 0.70425 0.03974999999999995 0.741375 0.05624999999999991 Q 0.7785 0.07274999999999998 0.804 0.08924999999999994 Q 0.771 0.13349999999999995 0.72675 0.205125 Q 0.6825 0.27674999999999994 0.63225 0.366375 Q 0.582 0.45599999999999996 0.531 0.55575 Q 0.53325 0.597 0.534375 0.646125 Q 0.5355 0.6952499999999999 0.536625 0.7394999999999999 Q 0.5377500000000001 0.78375 0.5377500000000001 0.8115 Q 0.5377500000000001 0.8445 0.537375 0.88125 Q 0.537 0.9179999999999999 0.537 0.946125 Q 0.537 0.97425 0.53625 0.98175 Q 0.52725 0.9854999999999999 0.49875 0.9881249999999999 Q 0.47025 0.99075 0.43575 0.99075 Q 0.399 0.99075 0.36262500000000003 0.98775 Q 0.32625 0.98475 0.3015 0.98025 Q 0.3015 0.94275 0.303375 0.8895 Q 0.30525 0.8362499999999999 0.3075 0.7777499999999999 Q 0.30975 0.71925 0.31275000000000003 0.6652499999999999 Q 0.31575000000000003 0.61125 0.31875000000000003 0.5722499999999999 M 0.8827060546875 1.0162499999999999 Q 0.8827060546875 0.9734999999999999 0.8808310546875 0.902625 Q 0.8789560546875 0.83175 0.8759560546875 0.74325 Q 0.8729560546875 0.6547499999999999 0.8684560546875 0.55725 Q 0.8639560546875 0.45975 0.8594560546875 0.362625 Q 0.8549560546875 0.26549999999999996 0.8508310546875 0.17737499999999995 Q 0.8467060546875 0.08924999999999994 0.8422060546875 0.02024999999999999 Q 0.8684560546875 0.014999999999999902 0.9022060546875 0.013124999999999942 Q 0.9359560546875 0.011249999999999982 0.9659560546875 0.011249999999999982 Q 1.0012060546875001 0.011249999999999982 1.0323310546875 0.01387499999999997 Q 1.0634560546875 0.01649999999999996 1.0807060546875 0.019499999999999962 Q 1.0814560546875 0.038999999999999924 1.0829560546875001 0.08212499999999989 Q 1.0844560546875 0.12524999999999997 1.0867060546875 0.1815 Q 1.0889560546875 0.2377499999999999 1.0915810546875 0.2962499999999999 Q 1.0942060546875 0.3547499999999999 1.0964560546875 0.40425 Q 1.1257060546875 0.3787499999999999 1.1605810546875 0.3378749999999999 Q 1.1954560546875 0.29699999999999993 1.2333310546875 0.24449999999999994 Q 1.2712060546875001 0.19199999999999995 1.3079560546875 0.1319999999999999 Q 1.3447060546875 0.07199999999999995 1.3777060546875 0.007499999999999951 Q 1.4362060546875002 0.05249999999999999 1.4935810546875001 0.08662499999999995 Q 1.5509560546875 0.12074999999999991 1.5749560546875 0.13349999999999995 Q 1.5659560546875 0.15449999999999997 1.5397060546875 0.19499999999999995 Q 1.5134560546875 0.23549999999999993 1.4763310546875 0.2849999999999999 Q 1.4392060546874998 0.3344999999999999 1.3949560546875 0.384 Q 1.3507060546875 0.4335 1.3057060546875001 0.47175 Q 1.3424560546875002 0.5137499999999999 1.3807060546874999 0.5636249999999999 Q 1.4189560546875 0.6134999999999999 1.4538310546875 0.664125 Q 1.4887060546875 0.71475 1.5179560546875002 0.7605 Q 1.5472060546875 0.8062499999999999 1.5670810546875 0.84075 Q 1.5869560546875001 0.87525 1.5937060546875 0.8917499999999999 Q 1.5749560546875 0.9045 1.5374560546875 0.92475 Q 1.4999560546875 0.945 1.4575810546875 0.9644999999999999 Q 1.4152060546875 0.984 1.3814560546874999 0.9944999999999999 Q 1.3739560546875 0.97575 1.3559560546875 0.9408749999999999 Q 1.3379560546875 0.9059999999999999 1.3139560546875 0.862125 Q 1.2899560546875 0.8182499999999999 1.2625810546875 0.7725 Q 1.2352060546875 0.72675 1.2082060546875 0.6855 Q 1.1812060546875 0.64425 1.1579560546875 0.61575 Q 1.1459560546875 0.6255 1.1339560546875 0.632625 Q 1.1219560546875 0.63975 1.1114560546875 0.6457499999999999 Q 1.1152060546875 0.6915 1.1189560546875 0.746625 Q 1.1227060546875 0.80175 1.1257060546875 0.8534999999999999 Q 1.1287060546875 0.90525 1.1305810546875001 0.94275 Q 1.1324560546875 0.98025 1.1324560546875 0.99075 Q 1.1189560546875 0.9914999999999999 1.0784560546875 0.99525 Q 1.0379560546875 0.999 0.9858310546875 1.0046249999999999 Q 0.9337060546875 1.0102499999999999 0.8827060546875 1.0162499999999999" fill="#0874b7" fill-rule="nonzero"></path></g><g></g></g><defs><clipPath id="SvgjsClipPath1001"><path d=" M 0.10887071374597068 -1.0240336081901993 h 1.4075027131330586 v 0.7740336081901994 h -1.4075027131330586 Z"></path></clipPath><clipPath id="SvgjsClipPath100089204ff0-8569-4fa3-b3a5-c28fd6289a31"><path d=" M 0.10887071374597068 -1.0240336081901993 L 1.5163734268790292 -1.0240336081901993 L 1.5163734268790292 -0.2499999999999999 L 0.10887071374597068 -0.2499999999999999 Z"></path></clipPath></defs></svg>