<svg xmlns="http://www.w3.org/2000/svg" xmlns:xlink="http://www.w3.org/1999/xlink" width="500" zoomAndPan="magnify" viewBox="0 0 375 374.999991" height="500" preserveAspectRatio="xMidYMid meet" version="1.0"><defs><g/><clipPath id="61887e8e0f"><path d="M 83 151.585938 L 116 151.585938 L 116 177 L 83 177 Z M 83 151.585938 " clip-rule="nonzero"/></clipPath><clipPath id="e4ad0ace4b"><path d="M 51.335938 154 L 94 154 L 94 215 L 51.335938 215 Z M 51.335938 154 " clip-rule="nonzero"/></clipPath><clipPath id="c178147af2"><path d="M 56 153 L 180.21875 153 L 180.21875 223.410156 L 56 223.410156 Z M 56 153 " clip-rule="nonzero"/></clipPath></defs><g clip-path="url(#61887e8e0f)"><path fill="#000000" d="M 83.023438 161.078125 C 83.714844 161.421875 84.320312 161.910156 84.78125 162.515625 L 89.269531 158.140625 C 89.730469 158.371094 90.21875 158.488281 90.765625 158.488281 C 90.9375 158.488281 91.140625 158.457031 91.3125 158.457031 L 95.226562 163.898438 C 94.59375 164.53125 94.21875 165.394531 94.21875 166.34375 C 94.21875 168.242188 95.746094 169.769531 97.644531 169.769531 C 98.507812 169.769531 99.316406 169.453125 99.917969 168.90625 C 102.96875 170.75 105.53125 173.28125 107.460938 176.273438 C 107.949219 177.050781 109.128906 176.90625 109.417969 176.042969 L 109.417969 176.015625 C 109.53125 175.699219 109.476562 175.324219 109.300781 175.035156 C 107.203125 171.753906 104.351562 168.992188 101.011719 166.976562 C 101.011719 166.921875 101.042969 166.863281 101.042969 166.777344 L 106.972656 166.171875 C 106.796875 165.683594 106.710938 165.164062 106.710938 164.617188 C 106.710938 164.386719 106.742188 164.128906 106.769531 163.898438 L 100.550781 164.53125 C 99.949219 163.550781 98.855469 162.890625 97.617188 162.890625 C 97.5 162.890625 97.386719 162.890625 97.300781 162.917969 L 93.300781 157.363281 C 93.472656 157.164062 93.644531 156.960938 93.761719 156.730469 C 99.113281 157.679688 104.148438 159.984375 108.410156 163.464844 C 108.265625 163.839844 108.207031 164.242188 108.207031 164.644531 C 108.207031 166.546875 109.734375 168.070312 111.632812 168.070312 C 113.535156 168.070312 115.058594 166.546875 115.058594 164.644531 C 115.058594 162.746094 113.535156 161.222656 111.632812 161.222656 C 110.972656 161.222656 110.339844 161.421875 109.820312 161.738281 C 105.386719 158.140625 100.035156 155.609375 94.164062 154.542969 C 93.902344 152.902344 92.492188 151.664062 90.765625 151.664062 C 88.867188 151.664062 87.339844 153.191406 87.339844 155.089844 C 87.339844 155.609375 87.457031 156.125 87.6875 156.558594 Z M 97.644531 164.386719 C 98.710938 164.386719 99.574219 165.25 99.574219 166.316406 C 99.574219 167.378906 98.710938 168.242188 97.644531 168.242188 C 96.582031 168.242188 95.71875 167.378906 95.71875 166.316406 C 95.71875 165.25 96.582031 164.386719 97.644531 164.386719 Z M 90.796875 153.132812 C 91.859375 153.132812 92.722656 153.996094 92.722656 155.0625 C 92.722656 156.125 91.859375 156.992188 90.796875 156.992188 C 89.730469 156.992188 88.867188 156.125 88.867188 155.0625 C 88.839844 153.996094 89.730469 153.132812 90.796875 153.132812 Z M 90.796875 153.132812 " fill-opacity="1" fill-rule="nonzero"/></g><g clip-path="url(#e4ad0ace4b)"><path fill="#000000" d="M 53.40625 187.039062 C 53.378906 187.5 53.378906 187.988281 53.378906 188.449219 C 53.320312 198.636719 57.722656 207.847656 64.746094 214.238281 C 65.0625 213.546875 65.523438 212.941406 66.101562 212.484375 C 66.070312 212.453125 66.042969 212.425781 66.015625 212.394531 C 59.046875 205.921875 55.308594 196.941406 55.652344 187.414062 C 55.652344 187.328125 55.652344 187.242188 55.652344 187.152344 C 57.0625 186.722656 58.097656 185.425781 58.097656 183.871094 C 58.097656 183.613281 58.070312 183.355469 58.011719 183.125 L 64.375 179.007812 C 65.007812 179.699219 65.898438 180.132812 66.90625 180.132812 C 68.804688 180.132812 70.332031 178.605469 70.332031 176.707031 C 70.332031 175.957031 70.101562 175.265625 69.699219 174.71875 C 71.941406 171.753906 74.90625 169.367188 78.304688 167.785156 C 78.9375 168.503906 79.859375 168.964844 80.894531 168.964844 C 82.648438 168.964844 84.117188 167.640625 84.289062 165.914062 C 85.527344 165.710938 86.824219 165.597656 88.117188 165.625 C 89.703125 165.625 91.226562 165.796875 92.695312 166.113281 C 92.722656 165.335938 92.953125 164.617188 93.328125 163.957031 C 91.484375 163.550781 89.585938 163.351562 87.628906 163.378906 C 86.335938 163.410156 85.039062 163.523438 83.773438 163.726562 C 83.167969 162.746094 82.101562 162.113281 80.867188 162.113281 C 79.886719 162.113281 78.996094 162.515625 78.390625 163.179688 L 71.65625 162.199219 C 71.65625 162.34375 71.683594 162.488281 71.683594 162.632812 C 71.683594 163.265625 71.570312 163.871094 71.339844 164.445312 L 77.46875 165.335938 C 77.46875 165.394531 77.46875 165.480469 77.46875 165.539062 C 77.46875 165.597656 77.46875 165.652344 77.46875 165.683594 C 73.671875 167.4375 70.390625 170.113281 67.882812 173.394531 C 67.796875 173.367188 67.710938 173.339844 67.625 173.339844 L 67.625 165.941406 C 69.09375 165.566406 70.1875 164.214844 70.1875 162.632812 C 70.1875 162.285156 70.128906 161.96875 70.042969 161.652344 C 74.765625 158.488281 80.261719 156.644531 86.015625 156.300781 C 85.929688 155.925781 85.875 155.523438 85.875 155.089844 C 85.875 154.746094 85.902344 154.398438 85.988281 154.054688 C 79.714844 154.429688 73.8125 156.53125 68.835938 159.898438 C 68.257812 159.464844 67.539062 159.207031 66.761719 159.207031 C 64.863281 159.207031 63.335938 160.730469 63.335938 162.632812 C 63.335938 163.179688 63.453125 163.667969 63.683594 164.128906 C 59.222656 168.5625 55.910156 174.203125 54.355469 180.449219 C 52.601562 180.589844 51.21875 182.058594 51.21875 183.871094 C 51.25 185.28125 52.140625 186.519531 53.40625 187.039062 Z M 66.90625 174.75 C 67.972656 174.75 68.835938 175.613281 68.835938 176.675781 C 68.835938 177.742188 67.972656 178.605469 66.90625 178.605469 C 65.839844 178.605469 64.976562 177.742188 64.976562 176.675781 C 64.976562 175.613281 65.839844 174.75 66.90625 174.75 Z M 65.152344 165.625 C 65.238281 165.652344 65.292969 165.710938 65.378906 165.738281 L 65.378906 173.625 C 64.257812 174.203125 63.480469 175.351562 63.480469 176.675781 C 63.480469 176.734375 63.480469 176.792969 63.480469 176.851562 L 56.804688 181.167969 C 56.71875 181.082031 56.601562 181.023438 56.515625 180.964844 C 57.925781 175.179688 60.890625 169.855469 65.152344 165.625 Z M 54.671875 181.886719 C 55.738281 181.886719 56.601562 182.75 56.601562 183.816406 C 56.601562 184.878906 55.738281 185.742188 54.671875 185.742188 C 53.609375 185.742188 52.746094 184.878906 52.746094 183.816406 C 52.746094 182.75 53.578125 181.886719 54.671875 181.886719 Z M 54.671875 181.886719 " fill-opacity="1" fill-rule="nonzero"/></g><g clip-path="url(#c178147af2)"><path fill="#27aae1" d="M 63.105469 197.601562 C 63.019531 197.890625 62.992188 198.175781 62.992188 198.496094 C 62.992188 200.105469 64.085938 201.457031 65.582031 201.832031 L 67.078125 213.574219 C 66.273438 214.210938 65.785156 215.1875 65.785156 216.253906 C 65.785156 218.152344 67.308594 219.679688 69.207031 219.679688 C 70.015625 219.679688 70.734375 219.390625 71.308594 218.957031 C 76.261719 221.691406 81.960938 223.246094 88.003906 223.246094 C 91.804688 223.246094 95.457031 222.640625 98.855469 221.519531 C 99.488281 222.183594 100.351562 222.585938 101.328125 222.585938 C 103.230469 222.585938 104.753906 221.058594 104.753906 219.160156 C 104.753906 218.210938 104.378906 217.375 103.777344 216.742188 L 107.402344 207.617188 C 108.496094 207.1875 109.300781 206.179688 109.503906 205 L 116.46875 201.601562 C 115.980469 201.027344 115.664062 200.335938 115.492188 199.589844 L 109.070312 202.726562 C 109.042969 202.695312 109.042969 202.667969 109.015625 202.640625 C 111.144531 199.445312 112.582031 195.730469 113.074219 191.730469 C 113.304688 189.945312 114.828125 188.621094 116.613281 188.621094 C 118.773438 188.621094 120.414062 190.492188 120.152344 192.621094 C 120.039062 193.457031 119.921875 194.292969 119.75 195.097656 C 118.082031 195.328125 116.816406 196.765625 116.816406 198.496094 C 116.816406 199.5 117.246094 200.394531 117.9375 201.027344 C 116.324219 204.914062 113.964844 208.453125 110.914062 211.53125 C 109.160156 213.289062 107.230469 214.8125 105.1875 216.109375 C 105.648438 216.683594 105.992188 217.375 106.136719 218.125 C 112.296875 214.324219 117.160156 208.65625 119.980469 201.917969 C 120.066406 201.917969 120.152344 201.917969 120.238281 201.917969 C 122.140625 201.917969 123.664062 200.394531 123.664062 198.496094 C 123.664062 197.226562 122.972656 196.105469 121.9375 195.5 C 122.371094 193.34375 122.601562 191.125 122.628906 188.851562 C 122.714844 176.128906 132.816406 165.652344 145.539062 165.597656 C 158.347656 165.539062 168.765625 175.988281 168.652344 188.824219 C 168.535156 201.457031 158.117188 211.707031 145.511719 211.617188 C 139.695312 211.589844 134.402344 209.402344 130.371094 205.804688 C 127.636719 203.359375 123.320312 204.050781 121.535156 207.273438 C 121.507812 207.300781 121.476562 207.359375 121.476562 207.386719 C 120.152344 209.75 120.671875 212.710938 122.6875 214.527344 C 128.875 220.023438 137.046875 223.332031 146 223.246094 C 165.082031 223.074219 180.335938 207.617188 180.308594 188.535156 C 180.28125 169.425781 164.765625 153.96875 145.65625 153.96875 C 126.601562 153.96875 111.144531 169.335938 111 188.363281 C 110.972656 193.082031 109.5625 197.515625 107.144531 201.199219 C 106.828125 201.085938 106.453125 201.027344 106.109375 201.027344 C 104.207031 201.027344 102.683594 202.550781 102.683594 204.453125 C 102.683594 205.949219 103.632812 207.214844 104.957031 207.675781 L 101.761719 215.734375 C 101.617188 215.707031 101.503906 215.707031 101.359375 215.707031 C 99.457031 215.707031 97.933594 217.230469 97.933594 219.132812 C 97.933594 219.246094 97.933594 219.363281 97.960938 219.449219 C 94.824219 220.457031 91.542969 221.003906 88.203125 221.003906 C 82.910156 221.03125 77.699219 219.765625 73.066406 217.347656 L 81.5 215.445312 C 81.097656 214.8125 80.835938 214.09375 80.75 213.316406 L 72.460938 215.1875 C 72.03125 213.835938 70.761719 212.855469 69.265625 212.828125 L 68.144531 204.191406 C 71.625 208.625 76.578125 211.847656 82.21875 213.203125 C 82.449219 214.898438 83.886719 216.222656 85.644531 216.222656 C 86.21875 216.222656 86.738281 216.082031 87.199219 215.851562 L 96.4375 218.871094 C 96.496094 218.09375 96.722656 217.347656 97.070312 216.714844 L 88.839844 214.035156 C 88.867188 213.980469 88.867188 213.921875 88.894531 213.863281 C 94.363281 213.664062 99.402344 211.734375 103.429688 208.597656 C 102.769531 208.164062 102.222656 207.589844 101.847656 206.925781 C 98.222656 209.71875 93.730469 211.445312 88.839844 211.617188 C 88.347656 210.296875 87.109375 209.375 85.613281 209.375 C 84.378906 209.375 83.285156 210.035156 82.679688 211.015625 C 76.808594 209.632812 71.800781 206.007812 68.632812 201.085938 C 69.351562 200.453125 69.8125 199.53125 69.8125 198.496094 C 69.8125 196.59375 68.289062 195.070312 66.386719 195.070312 C 66.214844 195.070312 66.070312 195.070312 65.898438 195.097656 C 65.265625 192.96875 64.949219 190.722656 64.976562 188.390625 C 65.007812 186.003906 65.378906 183.699219 66.101562 181.511719 C 65.351562 181.398438 64.632812 181.082031 64.027344 180.648438 C 63.222656 183.066406 62.761719 185.6875 62.734375 188.363281 C 62.703125 190.320312 62.933594 192.25 63.335938 194.089844 L 58.300781 187.125 C 57.78125 187.699219 57.148438 188.132812 56.457031 188.421875 Z M 104.179688 204.453125 C 104.179688 203.386719 105.042969 202.523438 106.109375 202.523438 C 107.171875 202.523438 108.035156 203.386719 108.035156 204.453125 C 108.035156 205.515625 107.171875 206.378906 106.109375 206.378906 C 105.042969 206.378906 104.179688 205.515625 104.179688 204.453125 Z M 101.359375 217.203125 C 102.421875 217.203125 103.285156 218.066406 103.285156 219.132812 C 103.285156 220.195312 102.421875 221.058594 101.359375 221.058594 C 100.292969 221.058594 99.429688 220.195312 99.429688 219.132812 C 99.429688 218.066406 100.265625 217.203125 101.359375 217.203125 Z M 66.417969 196.566406 C 67.480469 196.566406 68.34375 197.429688 68.34375 198.496094 C 68.34375 199.558594 67.480469 200.421875 66.417969 200.421875 C 65.351562 200.421875 64.488281 199.558594 64.488281 198.496094 C 64.460938 197.429688 65.324219 196.566406 66.417969 196.566406 Z M 66.417969 196.566406 " fill-opacity="1" fill-rule="nonzero"/></g><g fill="#000000" fill-opacity="1"><g transform="translate(138.126953, 193.792717)"><g><path d="M 13.609375 -14.359375 L 8.5625 -5.8125 L 8.5625 0 L 5.359375 0 L 5.359375 -5.828125 L 0.34375 -14.359375 L 3.65625 -14.359375 L 6.96875 -8.609375 L 10.296875 -14.359375 Z M 13.609375 -14.359375 "/></g></g></g><g fill="#000000" fill-opacity="1"><g transform="translate(80.769587, 195.331405)"><g><path d="M 13.625 0 L 9.828125 0 L 4.765625 -7.015625 L 4.765625 0 L 1.640625 0 L 1.640625 -14.359375 L 4.765625 -14.359375 L 4.765625 -7.734375 L 9.453125 -14.359375 L 13.09375 -14.359375 L 8.1875 -7.484375 Z M 13.625 0 "/></g></g></g></svg>